<svg width="82" height="86" viewBox="0 0 82 86" fill="none" xmlns="http://www.w3.org/2000/svg">
<path d="M55.0054 58.9974L63.0062 66.9982L79.0078 50.9966" stroke="#FF784F" stroke-width="5" stroke-linecap="round" stroke-linejoin="round"/>
<path d="M75.0074 34.9951V26.9943C75.0059 25.5912 74.6356 24.2132 73.9334 22.9985C73.2313 21.7838 72.222 20.7751 71.007 20.0735L43.0041 4.07191C41.7878 3.36969 40.4081 3 39.0037 3C37.5993 3 36.2196 3.36969 35.0033 4.07191L7.00041 20.0735C5.78534 20.7751 4.7761 21.7838 4.07396 22.9985C3.37181 24.2132 3.00144 25.5912 3 26.9943V58.9975C3.00144 60.4006 3.37181 61.7786 4.07396 62.9933C4.7761 64.208 5.78534 65.2167 7.00041 65.9182L35.0033 81.9199C36.2196 82.6221 37.5993 82.9918 39.0037 82.9918C40.4081 82.9918 41.7878 82.6221 43.0041 81.9199L51.0049 77.3594" stroke="#FF784F" stroke-width="5" stroke-linecap="round" stroke-linejoin="round"/>
<path d="M57.0056 32.5948L21.2019 11.9526" stroke="#FF784F" stroke-width="5" stroke-linecap="round" stroke-linejoin="round"/>
<path d="M4.16016 22.9937L39.0037 42.9957L73.8473 22.9937" stroke="#FF784F" stroke-width="5" stroke-linecap="round" stroke-linejoin="round"/>
<path d="M39.0037 83V42.9958" stroke="#FF784F" stroke-width="5" stroke-linecap="round" stroke-linejoin="round"/>
</svg>
