<svg width="92" height="86" viewBox="0 0 92 86" fill="none" xmlns="http://www.w3.org/2000/svg">
<path d="M88.6988 11.6024V63.3219C88.6988 67.4354 85.3565 71.2914 81.243 71.8056L79.8289 71.9774C70.4878 73.2201 56.0904 77.9759 47.8633 82.5179C46.7492 83.1607 44.9067 83.1607 43.7498 82.5179L43.5784 82.4327C35.3512 77.9335 20.9969 73.2201 11.6986 71.9774L10.4557 71.8056C6.34221 71.2914 3 67.4354 3 63.3219V11.5595C3 6.46044 7.15626 2.60403 12.2553 3.03253C21.2537 3.76097 34.8798 8.30313 42.5071 13.0594L43.5784 13.702C44.821 14.4733 46.8778 14.4733 48.1204 13.702L48.8488 13.2307C51.5483 11.5596 54.9763 9.88843 58.7042 8.3887V25.8713L67.2741 20.1723L75.8439 25.8713V3.50409C77.0009 3.28984 78.115 3.16112 79.1433 3.07542H79.4004C84.4995 2.64693 88.6988 6.46048 88.6988 11.6024Z" stroke="#FF784F" stroke-width="5" stroke-linecap="round" stroke-linejoin="round"/>
<path d="M45.8494 15.1162V79.3903" stroke="#FF784F" stroke-width="5" stroke-linecap="round" stroke-linejoin="round"/>
<path d="M75.844 3.50427V25.8715L67.2741 20.1725L58.7042 25.8715V8.38889C64.3175 6.16072 70.5735 4.36126 75.844 3.50427Z" stroke="#FF784F" stroke-width="5" stroke-linecap="round" stroke-linejoin="round"/>
</svg>
