<svg width="1852" height="468" viewBox="0 0 1852 468" fill="none" xmlns="http://www.w3.org/2000/svg">
<g clip-path="url(#clip0_4_23837)">
<path d="M1242.34 295.459H1211.73V300.185H1242.34V295.459Z" fill="#00FFCC"/>
<path d="M609.132 325.625H590.255V335.086H609.132V325.625Z" fill="#FF00FF"/>
<path d="M1232.91 1.29639H1202.3V6.02205H1232.91V1.29639Z" fill="#0098CC"/>
<path d="M498.452 62.75H467.841V67.4757H498.452V62.75Z" fill="#0098CC"/>
<path d="M1355.99 298.698H1337.11V308.159H1355.99V298.698Z" fill="#0098CC"/>
<path d="M765.941 289.237H747.063V298.698H765.941V289.237Z" fill="#00FFCC"/>
<path d="M922.454 414.064H891.843V418.79H922.454V414.064Z" fill="#0098CC"/>
<path d="M1029.56 258.313H998.947V263.039H1029.56V258.313Z" fill="#0098CC"/>
<path d="M513.85 365.369C513.306 364.42 513.049 363.332 513.113 362.238V355.967C513.047 354.879 513.315 353.797 513.88 352.866C514.179 352.482 514.57 352.179 515.016 351.986C515.463 351.793 515.951 351.717 516.435 351.763C516.922 351.719 517.412 351.796 517.861 351.989C518.311 352.181 518.705 352.483 519.01 352.866C519.575 353.797 519.842 354.879 519.776 355.967V362.238C519.841 363.335 519.585 364.427 519.039 365.379C518.731 365.765 518.331 366.067 517.876 366.258C517.421 366.449 516.926 366.522 516.435 366.472C515.946 366.523 515.452 366.449 515 366.256C514.548 366.063 514.152 365.758 513.85 365.369ZM518.273 364.867C518.668 364.106 518.851 363.253 518.803 362.396V355.819C518.851 354.966 518.668 354.116 518.273 353.358C518.074 353.06 517.798 352.821 517.474 352.669C517.15 352.516 516.791 352.455 516.435 352.492C516.081 352.46 515.725 352.524 515.405 352.678C515.085 352.833 514.813 353.071 514.617 353.368C514.213 354.119 514.022 354.967 514.067 355.819V362.396C514.022 363.251 514.212 364.103 514.617 364.857C514.811 365.156 515.083 365.396 515.403 365.552C515.724 365.709 516.08 365.774 516.435 365.743C516.792 365.779 517.152 365.717 517.476 365.562C517.8 365.408 518.075 365.167 518.273 364.867Z" fill="white"/>
<path d="M523.884 365.369C523.335 364.421 523.075 363.333 523.137 362.238V355.967C523.074 354.878 523.345 353.796 523.913 352.866C524.212 352.482 524.603 352.179 525.05 351.986C525.496 351.793 525.984 351.717 526.468 351.763C526.955 351.719 527.445 351.796 527.895 351.989C528.344 352.181 528.739 352.483 529.043 352.866C529.608 353.797 529.875 354.879 529.809 355.967V362.238C529.877 363.336 529.617 364.43 529.063 365.379C528.755 365.763 528.357 366.065 527.904 366.256C527.451 366.446 526.957 366.521 526.468 366.472C525.979 366.524 525.485 366.451 525.033 366.258C524.58 366.065 524.185 365.759 523.884 365.369ZM528.296 364.867C528.699 364.109 528.886 363.254 528.837 362.396V355.819C528.887 354.965 528.7 354.113 528.296 353.358C528.098 353.061 527.824 352.824 527.502 352.671C527.18 352.519 526.823 352.457 526.468 352.492C526.113 352.458 525.755 352.521 525.433 352.676C525.111 352.83 524.837 353.069 524.64 353.368C524.24 354.12 524.053 354.968 524.1 355.819V362.396C524.052 363.251 524.239 364.102 524.64 364.857C524.836 365.158 525.109 365.399 525.431 365.555C525.753 365.711 526.112 365.776 526.468 365.743C526.824 365.777 527.182 365.714 527.504 365.559C527.826 365.405 528.1 365.166 528.296 364.867Z" fill="white"/>
<path d="M533.101 364.434H534.143V366.285H533.101V364.434Z" fill="white"/>
<path d="M538.88 353.27C538.639 353.587 538.321 353.838 537.956 353.998C537.593 354.178 537.219 354.333 536.836 354.461V353.644C537.249 353.507 537.637 353.304 537.985 353.043C538.388 352.747 538.739 352.388 539.027 351.98H539.843V366.334H538.86L538.88 353.27Z" fill="white"/>
<path d="M545.955 353.27C545.714 353.587 545.396 353.838 545.031 353.998C544.669 354.178 544.295 354.333 543.911 354.461V353.644C544.324 353.507 544.712 353.304 545.061 353.043C545.463 352.747 545.815 352.388 546.102 351.98H546.918V366.334H545.935L545.955 353.27Z" fill="white"/>
<path d="M552.077 365.369C551.532 364.42 551.276 363.332 551.34 362.238V355.967C551.274 354.879 551.542 353.797 552.107 352.866C552.406 352.482 552.796 352.179 553.243 351.986C553.69 351.793 554.178 351.717 554.662 351.763C555.148 351.719 555.639 351.796 556.088 351.989C556.537 352.181 556.932 352.483 557.236 352.866C557.801 353.797 558.069 354.879 558.003 355.967V362.238C558.068 363.335 557.812 364.427 557.266 365.379C556.958 365.765 556.558 366.067 556.103 366.258C555.648 366.449 555.152 366.522 554.662 366.472C554.173 366.523 553.679 366.449 553.227 366.256C552.774 366.063 552.379 365.758 552.077 365.369ZM556.489 364.867C556.893 364.109 557.08 363.254 557.03 362.396V355.819C557.08 354.965 556.893 354.113 556.489 353.358C556.292 353.061 556.017 352.824 555.695 352.671C555.373 352.519 555.016 352.457 554.662 352.492C554.308 352.46 553.952 352.524 553.632 352.678C553.312 352.833 553.039 353.071 552.844 353.368C552.435 354.118 552.245 354.967 552.293 355.819V362.396C552.244 363.252 552.434 364.104 552.844 364.857C553.038 365.156 553.31 365.396 553.63 365.552C553.95 365.709 554.307 365.774 554.662 365.743C555.011 365.77 555.36 365.703 555.675 365.549C555.989 365.395 556.257 365.159 556.45 364.867H556.489Z" fill="white"/>
<path d="M563.064 353.27C562.821 353.585 562.503 353.836 562.14 353.998C561.775 354.18 561.397 354.335 561.01 354.461V353.644C561.425 353.511 561.813 353.308 562.16 353.043C562.564 352.75 562.916 352.391 563.201 351.98H564.017V366.334H563.034L563.064 353.27Z" fill="white"/>
<path d="M723.675 434.886C723.425 435.199 723.105 435.448 722.742 435.615C722.381 435.796 722.006 435.947 721.621 436.067V435.26C722.038 435.127 722.427 434.92 722.771 434.65C723.178 434.359 723.53 433.999 723.813 433.586H724.628V447.941H723.646L723.675 434.886Z" fill="white"/>
<path d="M729.787 447.035C729.243 446.086 728.986 444.998 729.05 443.904V437.633C728.984 436.545 729.252 435.463 729.817 434.532C730.116 434.148 730.507 433.845 730.953 433.652C731.4 433.459 731.888 433.383 732.372 433.429C732.859 433.385 733.349 433.462 733.798 433.655C734.248 433.847 734.642 434.149 734.947 434.532C735.512 435.463 735.779 436.545 735.713 437.633V443.904C735.778 445.001 735.522 446.093 734.976 447.045C734.668 447.431 734.268 447.733 733.813 447.924C733.358 448.115 732.863 448.188 732.372 448.138C731.883 448.189 731.389 448.115 730.937 447.922C730.485 447.729 730.089 447.424 729.787 447.035ZM734.2 446.533C734.603 445.775 734.79 444.92 734.74 444.062V437.485C734.79 436.631 734.603 435.779 734.2 435.024C734.002 434.727 733.727 434.49 733.406 434.337C733.084 434.185 732.726 434.123 732.372 434.158C732.018 434.126 731.662 434.19 731.342 434.344C731.022 434.499 730.75 434.737 730.554 435.034C730.15 435.785 729.959 436.633 730.004 437.485V444.062C729.959 444.917 730.149 445.769 730.554 446.523C730.748 446.822 731.02 447.062 731.34 447.218C731.661 447.374 732.017 447.44 732.372 447.409C732.727 447.443 733.085 447.38 733.407 447.225C733.729 447.071 734.003 446.832 734.2 446.533Z" fill="white"/>
<path d="M739.005 446.1H740.047V447.941H739.005V446.1Z" fill="white"/>
<path d="M744.793 434.886C744.546 435.201 744.225 435.451 743.86 435.615C743.499 435.796 743.124 435.947 742.739 436.067V435.26C743.156 435.127 743.545 434.92 743.889 434.65C744.298 434.362 744.651 434.001 744.931 433.586H745.746V447.941H744.764L744.793 434.886Z" fill="white"/>
<path d="M751.869 434.886C751.605 435.205 751.267 435.455 750.886 435.615C750.525 435.796 750.151 435.947 749.766 436.067V435.26C750.182 435.127 750.572 434.92 750.915 434.65C751.322 434.359 751.675 433.999 751.957 433.586H752.773V447.941H751.79L751.869 434.886Z" fill="white"/>
<path d="M757.981 447.035C757.436 446.086 757.18 444.998 757.244 443.904V437.633C757.178 436.545 757.445 435.463 758.01 434.532C758.309 434.148 758.7 433.845 759.147 433.652C759.593 433.459 760.081 433.383 760.566 433.429C761.052 433.385 761.542 433.462 761.992 433.655C762.441 433.847 762.836 434.149 763.14 434.532C763.705 435.463 763.973 436.545 763.907 437.633V443.904C763.972 445.001 763.716 446.093 763.17 447.045C762.861 447.431 762.462 447.733 762.007 447.924C761.552 448.115 761.056 448.188 760.566 448.138C760.077 448.189 759.583 448.115 759.13 447.922C758.678 447.729 758.283 447.424 757.981 447.035ZM762.403 446.533C762.798 445.772 762.982 444.918 762.934 444.062V437.485C762.982 436.632 762.799 435.782 762.403 435.024C762.205 434.726 761.929 434.487 761.605 434.335C761.281 434.182 760.922 434.121 760.566 434.158C760.212 434.126 759.856 434.19 759.536 434.344C759.216 434.499 758.943 434.737 758.748 435.034C758.343 435.785 758.153 436.633 758.197 437.485V444.062C758.152 444.917 758.343 445.769 758.748 446.523C758.942 446.822 759.214 447.062 759.534 447.218C759.854 447.374 760.211 447.44 760.566 447.409C760.922 447.445 761.282 447.382 761.606 447.228C761.93 447.074 762.206 446.833 762.403 446.533Z" fill="white"/>
<path d="M768.014 447.035C767.465 446.087 767.206 444.999 767.267 443.904V437.633C767.204 436.544 767.475 435.462 768.044 434.532C768.343 434.148 768.733 433.845 769.18 433.652C769.627 433.459 770.115 433.383 770.599 433.429C771.085 433.385 771.576 433.462 772.025 433.655C772.475 433.847 772.869 434.149 773.173 434.532C773.738 435.463 774.006 436.545 773.94 437.633V443.904C774.008 445.002 773.748 446.096 773.193 447.045C772.886 447.429 772.488 447.731 772.034 447.922C771.581 448.112 771.088 448.187 770.599 448.138C770.11 448.19 769.616 448.117 769.163 447.924C768.711 447.731 768.315 447.425 768.014 447.035ZM772.427 446.533C772.83 445.775 773.017 444.92 772.967 444.062V437.485C773.017 436.631 772.83 435.779 772.427 435.024C772.229 434.727 771.954 434.49 771.632 434.337C771.31 434.185 770.953 434.123 770.599 434.158C770.243 434.124 769.885 434.187 769.563 434.342C769.241 434.496 768.967 434.735 768.771 435.034C768.371 435.786 768.184 436.634 768.23 437.485V444.062C768.182 444.916 768.369 445.768 768.771 446.523C768.966 446.824 769.24 447.065 769.562 447.221C769.884 447.377 770.242 447.442 770.599 447.409C770.954 447.443 771.312 447.38 771.634 447.225C771.956 447.071 772.23 446.832 772.427 446.533Z" fill="white"/>
<path d="M778.048 447.035C777.494 446.088 777.234 444.999 777.301 443.904V437.633C777.235 436.545 777.502 435.463 778.067 434.531C778.37 434.151 778.761 433.851 779.207 433.659C779.652 433.467 780.139 433.388 780.622 433.429C781.109 433.384 781.599 433.462 782.049 433.654C782.498 433.847 782.893 434.148 783.197 434.531C783.77 435.46 784.041 436.543 783.973 437.633V443.904C784.036 445.001 783.776 446.093 783.226 447.044C782.918 447.43 782.518 447.733 782.063 447.924C781.608 448.114 781.113 448.188 780.622 448.137C780.135 448.189 779.642 448.115 779.192 447.922C778.741 447.729 778.347 447.423 778.048 447.035ZM782.46 446.533C782.859 445.773 783.046 444.919 783 444.061V437.485C783.046 436.631 782.859 435.78 782.46 435.024C782.261 434.725 781.985 434.487 781.661 434.334C781.338 434.182 780.978 434.12 780.622 434.157C780.268 434.125 779.913 434.19 779.592 434.344C779.272 434.498 779 434.736 778.804 435.033C778.4 435.785 778.21 436.633 778.254 437.485V444.061C778.209 444.917 778.399 445.768 778.804 446.523C778.999 446.822 779.271 447.062 779.591 447.218C779.911 447.374 780.268 447.44 780.622 447.409C780.981 447.447 781.343 447.385 781.669 447.23C781.994 447.076 782.272 446.834 782.47 446.533H782.46Z" fill="white"/>
<path d="M789.024 434.886C788.781 435.201 788.463 435.451 788.101 435.615C787.74 435.796 787.365 435.947 786.98 436.067V435.26C787.396 435.125 787.785 434.919 788.13 434.65C788.537 434.359 788.889 433.999 789.172 433.586H789.987V447.941H789.005L789.024 434.886Z" fill="white"/>
<path d="M1258.57 402.072H1259.69L1262.71 416.426H1261.73L1260.99 412.488H1257.28L1256.51 416.426H1255.53L1258.57 402.072ZM1260.87 411.75L1259.14 403.243L1257.43 411.75H1260.87Z" fill="white"/>
<path d="M1267.73 402.072H1268.9L1271.93 416.426H1270.95L1270.2 412.488H1266.49L1265.73 416.426H1264.75L1267.73 402.072ZM1270.03 411.75L1268.3 403.243L1266.58 411.75H1270.03Z" fill="white"/>
<path d="M1275.31 415.511C1274.76 414.568 1274.5 413.481 1274.56 412.39V406.109C1274.5 405.02 1274.77 403.937 1275.34 403.008C1275.64 402.629 1276.03 402.331 1276.48 402.141C1276.93 401.95 1277.41 401.872 1277.89 401.915C1278.38 401.869 1278.87 401.945 1279.32 402.136C1279.77 402.327 1280.16 402.626 1280.47 403.008C1281.03 403.94 1281.3 405.021 1281.24 406.109V412.39C1281.3 413.485 1281.04 414.575 1280.49 415.521C1280.19 415.912 1279.79 416.219 1279.34 416.412C1278.88 416.605 1278.39 416.678 1277.89 416.623C1277.4 416.675 1276.91 416.6 1276.46 416.405C1276.01 416.21 1275.61 415.902 1275.31 415.511ZM1279.72 415.019C1280.13 414.26 1280.31 413.405 1280.26 412.547V405.971C1280.31 405.116 1280.13 404.264 1279.72 403.51C1279.52 403.213 1279.25 402.976 1278.93 402.823C1278.61 402.67 1278.25 402.608 1277.89 402.643C1277.54 402.609 1277.18 402.673 1276.86 402.827C1276.54 402.982 1276.26 403.221 1276.07 403.519C1275.66 404.27 1275.47 405.119 1275.52 405.971V412.547C1275.47 413.403 1275.66 414.254 1276.07 415.009C1276.26 415.309 1276.54 415.55 1276.86 415.707C1277.18 415.863 1277.54 415.928 1277.89 415.895C1278.25 415.927 1278.6 415.863 1278.92 415.708C1279.24 415.554 1279.52 415.316 1279.71 415.019H1279.72Z" fill="white"/>
<path d="M1284.53 414.585H1285.61V416.426H1284.57L1284.53 414.585Z" fill="white"/>
<path d="M1290.31 403.361C1290.07 403.682 1289.75 403.933 1289.38 404.09C1289.02 404.276 1288.64 404.431 1288.25 404.553V403.736C1288.67 403.607 1289.06 403.403 1289.4 403.135C1289.81 402.847 1290.17 402.487 1290.45 402.072H1291.26V416.426H1290.28L1290.31 403.361Z" fill="white"/>
<path d="M1297.4 403.361C1297.16 403.68 1296.84 403.931 1296.48 404.09C1296.11 404.276 1295.74 404.431 1295.35 404.553V403.736C1295.76 403.607 1296.15 403.403 1296.5 403.135C1296.91 402.847 1297.27 402.487 1297.55 402.072H1298.35V416.426H1297.37L1297.4 403.361Z" fill="white"/>
<path d="M1303.5 415.511C1302.96 414.566 1302.7 413.481 1302.76 412.39V406.109C1302.69 405.02 1302.96 403.937 1303.53 403.008C1303.84 402.629 1304.23 402.331 1304.67 402.141C1305.12 401.95 1305.61 401.872 1306.09 401.915C1306.57 401.869 1307.06 401.945 1307.51 402.136C1307.96 402.327 1308.36 402.626 1308.66 403.008C1309.23 403.94 1309.49 405.021 1309.43 406.109V412.39C1309.5 413.485 1309.24 414.575 1308.68 415.521C1308.38 415.912 1307.98 416.219 1307.53 416.412C1307.07 416.605 1306.58 416.678 1306.09 416.623C1305.6 416.675 1305.1 416.6 1304.65 416.405C1304.2 416.21 1303.8 415.902 1303.5 415.511ZM1307.92 415.019C1308.32 414.26 1308.51 413.405 1308.46 412.547V405.971C1308.51 405.116 1308.32 404.264 1307.92 403.51C1307.72 403.213 1307.44 402.976 1307.12 402.823C1306.8 402.67 1306.44 402.608 1306.09 402.643C1305.73 402.609 1305.37 402.673 1305.05 402.827C1304.73 402.982 1304.46 403.221 1304.26 403.519C1303.86 404.271 1303.67 405.119 1303.72 405.971V412.547C1303.67 413.402 1303.86 414.253 1304.26 415.009C1304.46 415.309 1304.73 415.55 1305.05 415.707C1305.37 415.863 1305.73 415.928 1306.09 415.895C1306.44 415.929 1306.8 415.865 1307.12 415.711C1307.45 415.557 1307.72 415.317 1307.92 415.019Z" fill="white"/>
<path d="M1314.49 403.361C1314.23 403.689 1313.89 403.941 1313.51 404.09C1313.15 404.274 1312.77 404.429 1312.39 404.553V403.736C1312.8 403.607 1313.19 403.403 1313.54 403.135C1313.95 402.847 1314.3 402.487 1314.58 402.072H1315.39V416.426H1314.41L1314.49 403.361Z" fill="white"/>
<path d="M1321.57 403.361C1321.32 403.682 1321 403.933 1320.63 404.09C1320.27 404.274 1319.9 404.429 1319.51 404.553V403.736C1319.93 403.607 1320.32 403.403 1320.66 403.135C1321.07 402.847 1321.42 402.487 1321.7 402.072H1322.52V416.426H1321.54L1321.57 403.361Z" fill="white"/>
<path d="M1328.64 403.361C1328.39 403.689 1328.05 403.941 1327.66 404.09C1327.3 404.274 1326.92 404.429 1326.54 404.553V403.736C1326.95 403.607 1327.34 403.403 1327.69 403.135C1328.1 402.847 1328.45 402.487 1328.73 402.072H1329.54V416.426H1328.56L1328.64 403.361Z" fill="white"/>
<path d="M1335.73 403.361C1335.47 403.689 1335.13 403.941 1334.74 404.09C1334.38 404.274 1334.01 404.429 1333.62 404.553V403.736C1334.04 403.607 1334.43 403.403 1334.77 403.135C1335.18 402.847 1335.53 402.487 1335.81 402.072H1336.63V416.426H1335.65L1335.73 403.361Z" fill="white"/>
<path d="M958.893 189.614C958.34 188.667 958.08 187.578 958.146 186.483V180.212C958.082 179.124 958.35 178.043 958.912 177.111C959.216 176.732 959.608 176.434 960.053 176.244C960.499 176.053 960.985 175.976 961.467 176.018C961.953 175.972 962.443 176.048 962.892 176.239C963.342 176.43 963.737 176.729 964.042 177.111C964.608 178.042 964.879 179.123 964.818 180.212V186.483C964.882 187.581 964.623 188.673 964.072 189.624C963.764 190.011 963.365 190.316 962.91 190.508C962.455 190.701 961.959 190.776 961.467 190.726C960.979 190.777 960.486 190.701 960.035 190.507C959.584 190.312 959.191 190.004 958.893 189.614ZM963.305 189.122C963.703 188.361 963.889 187.508 963.845 186.65V180.074C963.892 179.22 963.705 178.369 963.305 177.613C963.108 177.312 962.832 177.072 962.508 176.918C962.184 176.763 961.824 176.701 961.467 176.736C961.114 176.704 960.758 176.769 960.438 176.923C960.117 177.077 959.845 177.316 959.649 177.613C959.244 178.367 959.054 179.218 959.099 180.074V186.65C959.055 187.506 959.245 188.357 959.649 189.112C959.844 189.411 960.116 189.651 960.436 189.807C960.756 189.963 961.113 190.029 961.467 189.998C961.821 190.03 962.177 189.965 962.497 189.811C962.817 189.657 963.09 189.419 963.285 189.122H963.305Z" fill="white"/>
<path d="M968.916 189.614C968.367 188.666 968.108 187.577 968.169 186.483V180.212C968.109 179.123 968.379 178.042 968.946 177.111C969.249 176.732 969.641 176.434 970.087 176.244C970.532 176.053 971.018 175.976 971.501 176.018C971.987 175.972 972.476 176.048 972.925 176.239C973.375 176.43 973.77 176.729 974.075 177.111C974.638 178.043 974.905 179.124 974.842 180.212V186.483C974.908 187.58 974.652 188.672 974.105 189.624C973.798 190.011 973.398 190.316 972.943 190.508C972.488 190.701 971.992 190.776 971.501 190.726C971.011 190.777 970.516 190.701 970.064 190.507C969.612 190.312 969.217 190.005 968.916 189.614ZM973.328 189.122C973.731 188.363 973.918 187.508 973.869 186.65V180.074C973.921 179.219 973.733 178.367 973.328 177.613C973.132 177.314 972.858 177.075 972.536 176.92C972.214 176.766 971.856 176.702 971.501 176.736C971.147 176.704 970.791 176.769 970.471 176.923C970.151 177.077 969.878 177.316 969.683 177.613C969.273 178.365 969.083 179.218 969.132 180.074V186.65C969.084 187.506 969.274 188.359 969.683 189.112C969.877 189.411 970.149 189.651 970.469 189.807C970.789 189.963 971.146 190.029 971.501 189.998C971.856 190.032 972.214 189.968 972.536 189.814C972.858 189.66 973.132 189.42 973.328 189.122Z" fill="white"/>
<path d="M978.134 188.689H979.176V190.53H978.134V188.689Z" fill="white"/>
<path d="M983.922 177.465C983.681 177.783 983.363 178.034 982.998 178.194C982.638 178.378 982.263 178.533 981.878 178.657V177.84C982.292 177.705 982.68 177.502 983.028 177.239C983.434 176.948 983.787 176.589 984.069 176.176H984.885V190.53H983.902L983.922 177.465Z" fill="white"/>
<path d="M990.034 189.614C989.489 188.664 989.233 187.576 989.297 186.483V180.212C989.234 179.124 989.501 178.043 990.064 177.111C990.367 176.732 990.759 176.434 991.205 176.244C991.65 176.053 992.136 175.976 992.619 176.018C993.105 175.972 993.594 176.048 994.044 176.239C994.493 176.43 994.888 176.729 995.193 177.111C995.756 178.043 996.023 179.124 995.96 180.212V186.483C996.026 187.58 995.77 188.672 995.223 189.624C994.916 190.011 994.516 190.316 994.061 190.508C993.606 190.701 993.11 190.776 992.619 190.726C992.129 190.777 991.635 190.701 991.182 190.507C990.73 190.312 990.335 190.005 990.034 189.614ZM994.447 189.122C994.849 188.363 995.036 187.508 994.987 186.65V180.074C995.039 179.219 994.851 178.367 994.447 177.613C994.25 177.314 993.976 177.075 993.654 176.92C993.332 176.766 992.974 176.702 992.619 176.736C992.265 176.704 991.909 176.769 991.589 176.923C991.269 177.077 990.996 177.316 990.801 177.613C990.396 178.367 990.205 179.218 990.25 180.074V186.65C990.206 187.506 990.397 188.357 990.801 189.112C990.995 189.411 991.267 189.651 991.587 189.807C991.908 189.963 992.264 190.029 992.619 189.998C992.974 190.032 993.332 189.968 993.654 189.814C993.976 189.66 994.25 189.42 994.447 189.122Z" fill="white"/>
<path d="M1000.07 189.614C999.519 188.666 999.259 187.577 999.321 186.483V180.212C999.255 179.123 999.526 178.04 1000.1 177.111C1000.4 176.732 1000.79 176.434 1001.24 176.244C1001.68 176.053 1002.17 175.976 1002.65 176.018C1003.14 175.972 1003.63 176.048 1004.08 176.239C1004.53 176.43 1004.92 176.729 1005.23 177.111C1005.79 178.043 1006.06 179.124 1005.99 180.212V186.483C1006.06 187.581 1005.8 188.675 1005.25 189.624C1004.94 190.01 1004.54 190.313 1004.09 190.506C1003.64 190.698 1003.14 190.774 1002.65 190.726C1002.16 190.778 1001.67 190.703 1001.22 190.508C1000.76 190.313 1000.37 190.005 1000.07 189.614ZM1004.48 189.122C1004.88 188.363 1005.07 187.508 1005.02 186.65V180.074C1005.07 179.219 1004.88 178.367 1004.48 177.613C1004.28 177.314 1004.01 177.075 1003.69 176.92C1003.37 176.766 1003.01 176.702 1002.65 176.736C1002.3 176.702 1001.94 176.766 1001.62 176.92C1001.29 177.075 1001.02 177.314 1000.82 177.613C1000.42 178.367 1000.23 179.218 1000.27 180.074V186.65C1000.23 187.506 1000.42 188.357 1000.82 189.112C1001.02 189.412 1001.29 189.653 1001.62 189.81C1001.94 189.966 1002.3 190.031 1002.65 189.998C1003.01 190.032 1003.37 189.968 1003.69 189.814C1004.01 189.66 1004.28 189.42 1004.48 189.122Z" fill="white"/>
<path d="M1077.41 22.9955C1076.86 22.0474 1076.6 20.9589 1076.66 19.8647V13.613C1076.59 12.5237 1076.86 11.44 1077.43 10.5118C1077.74 10.1315 1078.13 9.83195 1078.57 9.6396C1079.02 9.44725 1079.51 9.36807 1079.99 9.40916C1080.48 9.36472 1080.97 9.44226 1081.42 9.63473C1081.87 9.82721 1082.26 10.1286 1082.56 10.5118C1083.13 11.4431 1083.4 12.5252 1083.33 13.613V19.8844C1083.4 20.9823 1083.14 22.0756 1082.58 23.025C1082.28 23.4094 1081.88 23.7107 1081.43 23.9016C1080.97 24.0924 1080.48 24.1667 1079.99 24.1178C1079.5 24.1681 1079 24.0914 1078.55 23.8949C1078.1 23.6984 1077.7 23.3887 1077.41 22.9955ZM1081.82 22.5032C1082.22 21.741 1082.41 20.8831 1082.36 20.0222V13.4556C1082.41 12.5977 1082.22 11.7427 1081.82 10.9844C1081.62 10.6876 1081.35 10.4502 1081.02 10.2976C1080.7 10.145 1080.34 10.083 1079.99 10.118C1079.63 10.084 1079.28 10.1476 1078.95 10.302C1078.63 10.4563 1078.36 10.6957 1078.16 10.9943C1077.76 11.7497 1077.57 12.601 1077.62 13.4556V20.0222C1077.57 20.8799 1077.76 21.7343 1078.16 22.4934C1078.36 22.7938 1078.63 23.035 1078.95 23.1912C1079.28 23.3473 1079.63 23.4124 1079.99 23.3794C1080.35 23.4104 1080.71 23.3423 1081.03 23.1826C1081.35 23.0229 1081.62 22.7777 1081.82 22.4737V22.5032Z" fill="white"/>
<path d="M1087.44 22.9955C1086.89 22.0491 1086.63 20.9594 1086.69 19.8647V13.613C1086.63 12.5252 1086.89 11.4431 1087.46 10.5118C1087.76 10.1315 1088.15 9.83195 1088.6 9.6396C1089.04 9.44725 1089.53 9.36807 1090.01 9.40916C1090.5 9.36472 1090.99 9.44226 1091.44 9.63473C1091.89 9.82721 1092.28 10.1286 1092.59 10.5118C1093.16 11.442 1093.43 12.5242 1093.36 13.613V19.8844C1093.43 20.9818 1093.17 22.0736 1092.62 23.025C1092.31 23.4109 1091.91 23.7131 1091.45 23.904C1091 24.095 1090.5 24.1684 1090.01 24.1178C1089.52 24.1674 1089.03 24.0902 1088.58 23.8936C1088.13 23.6971 1087.74 23.3879 1087.44 22.9955ZM1091.85 22.5032C1092.25 21.7393 1092.44 20.8827 1092.39 20.0222V13.4556C1092.44 12.5981 1092.25 11.7443 1091.85 10.9844C1091.65 10.6861 1091.38 10.4477 1091.05 10.295C1090.73 10.1423 1090.37 10.0811 1090.01 10.118C1089.66 10.0859 1089.3 10.1503 1088.98 10.3046C1088.66 10.4589 1088.39 10.6973 1088.2 10.9943C1087.79 11.7487 1087.6 12.6001 1087.65 13.4556V20.0222C1087.6 20.8808 1087.79 21.7353 1088.2 22.4934C1088.39 22.7922 1088.66 23.0325 1088.98 23.1886C1089.3 23.3446 1089.66 23.4106 1090.01 23.3794C1090.37 23.4122 1090.74 23.3451 1091.06 23.1853C1091.38 23.0255 1091.66 22.7793 1091.85 22.4737V22.5032Z" fill="white"/>
<path d="M1096.65 22.0601H1097.7V23.9109H1096.65V22.0601Z" fill="white"/>
<path d="M1102.43 10.8464C1102.19 11.1641 1101.87 11.4147 1101.5 11.5749C1101.14 11.7563 1100.77 11.911 1100.38 12.0376V11.2205C1100.8 11.0875 1101.18 10.8844 1101.53 10.6199C1101.94 10.3268 1102.29 9.96731 1102.57 9.55664H1103.39V23.9109H1102.41L1102.43 10.8464Z" fill="white"/>
<path d="M825.433 27.297C825.172 27.6186 824.834 27.8692 824.45 28.0256C824.088 28.2053 823.714 28.3599 823.33 28.4883V27.6712C823.745 27.5382 824.134 27.335 824.48 27.0706C824.884 26.7774 825.237 26.418 825.522 26.0073H826.337V40.3615H825.354L825.433 27.297Z" fill="white"/>
<path d="M830.74 38.5112H831.781V40.3621H830.74V38.5112Z" fill="white"/>
<path d="M837.157 26.0073H838.277L841.294 40.3615H840.311L839.574 36.4234H835.859L835.093 40.3615H834.11L837.157 26.0073ZM839.456 35.6752L837.727 27.169L836.007 35.6752H839.456Z" fill="white"/>
<path d="M846.345 26.0073H847.465L850.492 40.3615H849.509L848.762 36.4234H845.048L844.291 40.3615H843.308L846.345 26.0073ZM848.644 35.6752L846.915 27.169L845.195 35.6752H848.644Z" fill="white"/>
<mask id="mask0_4_23837" style="mask-type:luminance" maskUnits="userSpaceOnUse" x="245" y="-225" width="1180" height="789">
<path d="M1424.61 -224.039H245.379V563.572H1424.61V-224.039Z" fill="white"/>
</mask>
<g mask="url(#mask0_4_23837)">
<path d="M25.7957 195.314C70.9996 195.314 70.9996 205.8 116.302 205.8C161.604 205.8 161.555 206.42 206.808 206.42C252.061 206.42 252.071 187.812 297.324 187.812C342.577 187.812 342.587 87.1755 387.84 87.1755C433.093 87.1755 433.044 266.357 478.356 266.357C523.668 266.357 523.559 178.637 568.862 178.637C614.164 178.637 614.066 161.231 659.378 161.231C704.69 161.231 704.581 168.664 749.884 168.664C795.186 168.664 795.146 67.1112 840.399 67.1112C885.652 67.1112 885.653 260.824 930.856 260.824C976.06 260.824 976.06 35.144 1021.34 35.144C1066.63 35.144 1066.55 158.631 1111.84 158.631C1157.13 158.631 1157.04 124.37 1202.35 124.37C1247.65 124.37 1247.55 167.837 1292.83 167.837C1338.11 167.837 1338.08 205.957 1383.34 205.957C1428.59 205.957 1428.54 183.53 1473.83 183.52C1508.49 183.52 1525.18 219.248 1556.72 228.808C1609.79 244.885 1674.22 241.803 1728.84 235.965" stroke="url(#paint0_linear_4_23837)" stroke-width="2.94808" stroke-miterlimit="10"/>
</g>
<mask id="mask1_4_23837" style="mask-type:luminance" maskUnits="userSpaceOnUse" x="245" y="-225" width="1180" height="789">
<path d="M1424.61 -224.039H245.379V563.572H1424.61V-224.039Z" fill="white"/>
</mask>
<g mask="url(#mask1_4_23837)">
<path d="M1674.37 0.607328C1629.65 -3.76391 1581.41 9.60578 1541.34 -10.7736C1519.01 -22.1349 1496.9 -42.849 1472.05 -27.7072C1455.56 -17.6553 1446.5 3.09816 1438.49 19.7561C1424.84 48.2085 1409.81 103.036 1370.21 103.036C1308.59 103.036 1308.59 43.4238 1246.99 43.4238C1185.38 43.4238 1185.38 353.545 1123.78 353.545C1062.17 353.545 1062.17 359.63 1000.58 359.63C938.983 359.63 938.973 -44.2471 877.368 -44.2471C815.763 -44.2471 815.763 -5.35882 754.148 -5.35882C692.534 -5.35882 692.543 124.361 630.938 124.361C582.953 124.361 569.078 216.413 553.846 248.783C542.761 272.343 524.994 302.065 497.105 306.87C453.798 314.401 434.124 271.791 403.189 254.454C385.874 244.737 364.55 253.312 346.065 260.529C237.409 303.059 116.42 293.864 0.245667 284.078" stroke="#00FFCC" stroke-width="4.91347" stroke-miterlimit="10"/>
</g>
</g>
<g style="mix-blend-mode:screen" filter="url(#filter0_f_4_23837)">
<ellipse cx="1240.82" cy="-143.176" rx="204.5" ry="547.613" transform="rotate(45 1240.82 -143.176)" fill="#01FFA4"/>
</g>
<defs>
<filter id="filter0_f_4_23837" x="629.787" y="-754.212" width="1222.07" height="1222.07" filterUnits="userSpaceOnUse" color-interpolation-filters="sRGB">
<feFlood flood-opacity="0" result="BackgroundImageFix"/>
<feBlend mode="normal" in="SourceGraphic" in2="BackgroundImageFix" result="shape"/>
<feGaussianBlur stdDeviation="98.7923" result="effect1_foregroundBlur_4_23837"/>
</filter>
<linearGradient id="paint0_linear_4_23837" x1="25.7564" y1="150.736" x2="1729" y2="150.736" gradientUnits="userSpaceOnUse">
<stop stop-color="#2965E2"/>
<stop offset="1" stop-color="#29D3E2"/>
</linearGradient>
<clipPath id="clip0_4_23837">
<rect width="1729" height="541.138" fill="white" transform="translate(0 -93)"/>
</clipPath>
</defs>
</svg>
