<svg width="159" height="45" viewBox="0 0 159 45" fill="none" xmlns="http://www.w3.org/2000/svg">
<path d="M39.8112 44.952H38.2324V34.3016H39.8204C46.3378 34.3016 51.6411 28.999 51.6411 22.4815C51.6403 19.3458 50.395 16.3385 48.1786 14.1203C45.9623 11.902 42.9562 10.654 39.8204 10.6505H38.2324V0H39.8112C52.2097 0 62.2928 10.0776 62.2928 22.4705C62.2928 34.8635 52.2073 44.952 39.8112 44.952ZM31.7321 27.8012H28.0718V17.1508H39.8229C41.2352 17.1508 42.5897 17.7118 43.5884 18.7105C44.587 19.7092 45.1481 21.0637 45.1481 22.476C45.1481 23.8884 44.587 25.2428 43.5884 26.2415C42.5897 27.2402 41.2352 27.8012 39.8229 27.8012H31.7321ZM31.7321 44.952H24.7627C17.1282 44.952 10.921 38.7424 10.921 31.111V10.6505H0.75V0H31.7321V10.6505H21.5715V34.3016H31.7321V44.952Z" fill="#C8FF00"/>
<path d="M39.8112 44.952H38.2324V34.3016H39.8204C46.3378 34.3016 51.6411 28.999 51.6411 22.4815C51.6403 19.3458 50.395 16.3385 48.1786 14.1203C45.9623 11.902 42.9562 10.654 39.8204 10.6505H38.2324V0H39.8112C52.2097 0 62.2928 10.0776 62.2928 22.4705C62.2928 34.8635 52.2073 44.952 39.8112 44.952ZM31.7321 27.8012H28.0718V17.1508H39.8229C41.2352 17.1508 42.5897 17.7118 43.5884 18.7105C44.587 19.7092 45.1481 21.0637 45.1481 22.476C45.1481 23.8884 44.587 25.2428 43.5884 26.2415C42.5897 27.2402 41.2352 27.8012 39.8229 27.8012H31.7321ZM31.7321 44.952H24.7627C17.1282 44.952 10.921 38.7424 10.921 31.111V10.6505H0.75V0H31.7321V10.6505H21.5715V34.3016H31.7321V44.952Z" fill="url(#paint0_linear_4_23921)"/>
<path d="M73.0849 12L72.1962 10.034H67.9274L67.0387 12H66.0691L69.5838 4.39166H70.5399L74.0545 12H73.0849ZM68.2776 9.25292H71.8461L70.0685 5.30735L68.2776 9.25292ZM87.1621 12H86.2194V6.14225L83.3108 11.0439H82.8664L79.9577 6.22305V12H79.0285V4.39166H79.8634L83.0953 9.84542L86.3137 4.39166H87.1486L87.1621 12ZM90.9656 11.192H95.5306V12H89.996V4.39166H95.369V5.19962H90.9656V7.74471H94.8977V8.53921H90.9656V11.192ZM99.724 12.0808C98.5525 12.0808 97.3944 11.6903 96.7884 11.1247L97.1924 10.3706C97.758 10.8823 98.7275 11.2594 99.751 11.2594C101.151 11.2594 101.704 10.6938 101.704 10.007C101.704 8.00057 97.0174 9.30678 97.0174 6.45197C97.0174 5.21309 98.0408 4.29739 99.926 4.29739C100.815 4.29739 101.744 4.52632 102.377 4.9707L102.027 5.75173C101.38 5.29389 100.613 5.13229 99.8991 5.13229C98.5525 5.13229 97.9734 5.69787 97.9734 6.41157C97.9734 8.40455 102.673 7.13874 102.673 9.92622C102.673 11.192 101.623 12.0808 99.724 12.0808ZM110.301 12L109.412 10.034H105.143L104.255 12H103.285L106.8 4.39166H107.756L111.27 12H110.301ZM105.493 9.25292H109.062L107.284 5.30735L105.493 9.25292ZM70.4187 17.3917C72.3712 17.3917 73.5967 18.3477 73.5967 20.0175C73.5967 21.6739 72.3712 22.6434 70.4187 22.6434H68.4257V25H67.4561V17.3917H70.4187ZM70.3648 21.8355C71.8326 21.8355 72.6271 21.1756 72.6271 20.0175C72.6271 18.846 71.8326 18.1996 70.3648 18.1996H68.4257V21.8355H70.3648ZM82.029 25H80.9786L79.2549 22.603C79.0799 22.6165 78.9048 22.63 78.7298 22.63H76.7368V25H75.7672V17.3917H78.7298C80.6824 17.3917 81.9078 18.3477 81.9078 20.0175C81.9078 21.2026 81.2614 22.0375 80.1706 22.4145L82.029 25ZM78.6759 21.8355C80.1437 21.8355 80.9382 21.1756 80.9382 20.0175C80.9382 18.846 80.1437 18.1996 78.6759 18.1996H76.7368V21.8355H78.6759ZM87.483 25.0808C85.1534 25.0808 83.4028 23.4245 83.4028 21.1891C83.4028 18.9672 85.1534 17.2974 87.483 17.2974C89.8261 17.2974 91.5633 18.9672 91.5633 21.1891C91.5633 23.4245 89.8261 25.0808 87.483 25.0808ZM87.483 24.2459C89.2606 24.2459 90.5937 22.9532 90.5937 21.2026C90.5937 19.4385 89.2606 18.1458 87.483 18.1458C85.7055 18.1458 84.3724 19.4385 84.3724 21.2026C84.3724 22.9532 85.7055 24.2459 87.483 24.2459ZM96.5881 17.3917C98.5407 17.3917 99.7661 18.3477 99.7661 20.0175C99.7661 21.6739 98.5407 22.6434 96.5881 22.6434H94.5951V25H93.6256V17.3917H96.5881ZM96.5343 21.8355C98.0021 21.8355 98.7966 21.1756 98.7966 20.0175C98.7966 18.846 98.0021 18.1996 96.5343 18.1996H94.5951V21.8355H96.5343ZM108.198 25H107.148L105.424 22.603C105.249 22.6165 105.074 22.63 104.899 22.63H102.906V25H101.937V17.3917H104.899C106.852 17.3917 108.077 18.3477 108.077 20.0175C108.077 21.2026 107.431 22.0375 106.34 22.4145L108.198 25ZM104.845 21.8355C106.313 21.8355 107.108 21.1756 107.108 20.0175C107.108 18.846 106.313 18.1996 104.845 18.1996H102.906V21.8355H104.845ZM110.34 25V17.3917H111.309V25H110.34ZM115.11 24.192H119.675V25H114.14V17.3917H119.513V18.1996H115.11V20.7447H119.042V21.5392H115.11V24.192ZM123.087 25V18.1996H120.408V17.3917H126.737V18.1996H124.057V25H123.087ZM132.586 14.6311L130.405 16.3009H129.462L131.307 14.6311H132.586ZM133.354 25L132.465 23.034H128.196L127.307 25H126.338L129.852 17.3917H130.809L134.323 25H133.354ZM128.546 22.2529H132.115L130.337 18.3074L128.546 22.2529ZM142.035 25H140.984L139.261 22.603C139.086 22.6165 138.91 22.63 138.735 22.63H136.742V25H135.773V17.3917H138.735C140.688 17.3917 141.913 18.3477 141.913 20.0175C141.913 21.2026 141.267 22.0375 140.176 22.4145L142.035 25ZM138.682 21.8355C140.149 21.8355 140.944 21.1756 140.944 20.0175C140.944 18.846 140.149 18.1996 138.682 18.1996H136.742V21.8355H138.682ZM144.176 25V17.3917H145.146V25H144.176ZM153.605 25L152.717 23.034H148.448L147.559 25H146.59L150.104 17.3917H151.06L154.575 25H153.605ZM148.798 22.2529H152.366L150.589 18.3074L148.798 22.2529ZM68.5334 39V32.9133H66.096V31.257H73.0984V32.9133H70.6611V39H68.5334ZM74.1935 39V31.257H77.8428C80.4956 31.257 82.2462 32.7383 82.2462 35.1352C82.2462 37.5187 80.4956 39 77.8428 39H74.1935ZM76.3211 37.3302H77.7755C79.1894 37.3302 80.0916 36.5492 80.0916 35.1352C80.0916 33.7078 79.1894 32.9268 77.7755 32.9268H76.3211V37.3302ZM83.7539 39V31.257H85.8815V37.3437H89.6655V39H83.7539Z" fill="white"/>
<defs>
<linearGradient id="paint0_linear_4_23921" x1="0.75" y1="44.952" x2="55.0597" y2="44.952" gradientUnits="userSpaceOnUse">
<stop stop-color="#AADE1A"/>
<stop offset="1" stop-color="#00FFA3"/>
</linearGradient>
</defs>
</svg>
